<mxfile host="app.diagrams.net" agent="Mozilla/5.0 (Macintosh; Intel Mac OS X 10_15_7) AppleWebKit/537.36 (KHTML, like Gecko) Chrome/128.0.0.0 Safari/537.36" version="24.7.10">
  <diagram name="第 1 页" id="sZJ22BPr7j-9UGp3Hz9-">
    <mxGraphModel dx="1527" dy="610" grid="1" gridSize="10" guides="1" tooltips="1" connect="1" arrows="1" fold="1" page="0" pageScale="1" pageWidth="827" pageHeight="1169" math="0" shadow="0">
      <root>
        <mxCell id="0" />
        <mxCell id="1" parent="0" />
        <mxCell id="rqm2Wf6PRogvZQ6xTr7Q-8" value="" style="group" parent="1" vertex="1" connectable="0">
          <mxGeometry x="150" y="150" width="180" height="240" as="geometry" />
        </mxCell>
        <mxCell id="rqm2Wf6PRogvZQ6xTr7Q-1" value="RedisObject" style="rounded=0;whiteSpace=wrap;html=1;fontStyle=1;fontSize=15;" parent="rqm2Wf6PRogvZQ6xTr7Q-8" vertex="1">
          <mxGeometry width="180" height="40" as="geometry" />
        </mxCell>
        <mxCell id="rqm2Wf6PRogvZQ6xTr7Q-2" value="&lt;span style=&quot;font-weight: normal;&quot;&gt;type:&amp;nbsp;&lt;/span&gt;&lt;div&gt;&lt;span style=&quot;font-weight: normal;&quot;&gt;OBJ_STRING&lt;/span&gt;&lt;/div&gt;" style="rounded=0;whiteSpace=wrap;html=1;fontStyle=1;fontSize=15;" parent="rqm2Wf6PRogvZQ6xTr7Q-8" vertex="1">
          <mxGeometry y="40" width="180" height="40" as="geometry" />
        </mxCell>
        <mxCell id="rqm2Wf6PRogvZQ6xTr7Q-3" value="&lt;span style=&quot;font-weight: normal;&quot;&gt;encoding: OBJ_ENCODING_RAW&lt;/span&gt;" style="rounded=0;whiteSpace=wrap;html=1;fontStyle=1;fontSize=15;" parent="rqm2Wf6PRogvZQ6xTr7Q-8" vertex="1">
          <mxGeometry y="80" width="180" height="40" as="geometry" />
        </mxCell>
        <mxCell id="rqm2Wf6PRogvZQ6xTr7Q-5" value="&lt;span style=&quot;font-weight: normal;&quot;&gt;lru&lt;/span&gt;" style="rounded=0;whiteSpace=wrap;html=1;fontStyle=1;fontSize=15;" parent="rqm2Wf6PRogvZQ6xTr7Q-8" vertex="1">
          <mxGeometry y="120" width="180" height="40" as="geometry" />
        </mxCell>
        <mxCell id="rqm2Wf6PRogvZQ6xTr7Q-6" value="&lt;span style=&quot;font-weight: 400;&quot;&gt;refcount&lt;/span&gt;" style="rounded=0;whiteSpace=wrap;html=1;fontStyle=1;fontSize=15;" parent="rqm2Wf6PRogvZQ6xTr7Q-8" vertex="1">
          <mxGeometry y="160" width="180" height="40" as="geometry" />
        </mxCell>
        <mxCell id="rqm2Wf6PRogvZQ6xTr7Q-7" value="&lt;span style=&quot;font-weight: 400;&quot;&gt;ptr&lt;/span&gt;" style="rounded=0;whiteSpace=wrap;html=1;fontStyle=1;fontSize=15;" parent="rqm2Wf6PRogvZQ6xTr7Q-8" vertex="1">
          <mxGeometry y="200" width="180" height="40" as="geometry" />
        </mxCell>
        <mxCell id="rqm2Wf6PRogvZQ6xTr7Q-27" value="" style="group" parent="1" vertex="1" connectable="0">
          <mxGeometry x="470" y="280" width="720" height="100" as="geometry" />
        </mxCell>
        <mxCell id="rqm2Wf6PRogvZQ6xTr7Q-25" value="" style="group" parent="rqm2Wf6PRogvZQ6xTr7Q-27" vertex="1" connectable="0">
          <mxGeometry y="40" width="720" height="60" as="geometry" />
        </mxCell>
        <mxCell id="rqm2Wf6PRogvZQ6xTr7Q-9" value="len:50" style="rounded=0;whiteSpace=wrap;html=1;fontSize=17;" parent="rqm2Wf6PRogvZQ6xTr7Q-25" vertex="1">
          <mxGeometry width="60" height="60" as="geometry" />
        </mxCell>
        <mxCell id="rqm2Wf6PRogvZQ6xTr7Q-10" value="alloc:50" style="rounded=0;whiteSpace=wrap;html=1;fontSize=17;" parent="rqm2Wf6PRogvZQ6xTr7Q-25" vertex="1">
          <mxGeometry x="61" width="69" height="60" as="geometry" />
        </mxCell>
        <mxCell id="rqm2Wf6PRogvZQ6xTr7Q-11" value="flags:1" style="rounded=0;whiteSpace=wrap;html=1;fontSize=17;" parent="rqm2Wf6PRogvZQ6xTr7Q-25" vertex="1">
          <mxGeometry x="130" width="70" height="60" as="geometry" />
        </mxCell>
        <mxCell id="rqm2Wf6PRogvZQ6xTr7Q-12" value="h" style="rounded=0;whiteSpace=wrap;html=1;fontSize=17;" parent="rqm2Wf6PRogvZQ6xTr7Q-25" vertex="1">
          <mxGeometry x="200" width="40" height="60" as="geometry" />
        </mxCell>
        <mxCell id="rqm2Wf6PRogvZQ6xTr7Q-13" value="i" style="rounded=0;whiteSpace=wrap;html=1;fontSize=17;" parent="rqm2Wf6PRogvZQ6xTr7Q-25" vertex="1">
          <mxGeometry x="240" width="40" height="60" as="geometry" />
        </mxCell>
        <mxCell id="rqm2Wf6PRogvZQ6xTr7Q-14" value="," style="rounded=0;whiteSpace=wrap;html=1;fontSize=17;" parent="rqm2Wf6PRogvZQ6xTr7Q-25" vertex="1">
          <mxGeometry x="280" width="40" height="60" as="geometry" />
        </mxCell>
        <mxCell id="rqm2Wf6PRogvZQ6xTr7Q-15" value="A" style="rounded=0;whiteSpace=wrap;html=1;fontSize=17;" parent="rqm2Wf6PRogvZQ6xTr7Q-25" vertex="1">
          <mxGeometry x="320" width="40" height="60" as="geometry" />
        </mxCell>
        <mxCell id="rqm2Wf6PRogvZQ6xTr7Q-16" value="m" style="rounded=0;whiteSpace=wrap;html=1;fontSize=17;" parent="rqm2Wf6PRogvZQ6xTr7Q-25" vertex="1">
          <mxGeometry x="360" width="40" height="60" as="geometry" />
        </mxCell>
        <mxCell id="rqm2Wf6PRogvZQ6xTr7Q-17" value="y" style="rounded=0;whiteSpace=wrap;html=1;fontSize=17;" parent="rqm2Wf6PRogvZQ6xTr7Q-25" vertex="1">
          <mxGeometry x="400" width="40" height="60" as="geometry" />
        </mxCell>
        <mxCell id="rqm2Wf6PRogvZQ6xTr7Q-18" value="，" style="rounded=0;whiteSpace=wrap;html=1;fontSize=17;" parent="rqm2Wf6PRogvZQ6xTr7Q-25" vertex="1">
          <mxGeometry x="440" width="40" height="60" as="geometry" />
        </mxCell>
        <mxCell id="rqm2Wf6PRogvZQ6xTr7Q-19" value="." style="rounded=0;whiteSpace=wrap;html=1;fontSize=17;" parent="rqm2Wf6PRogvZQ6xTr7Q-25" vertex="1">
          <mxGeometry x="480" width="40" height="60" as="geometry" />
        </mxCell>
        <mxCell id="rqm2Wf6PRogvZQ6xTr7Q-20" value="." style="rounded=0;whiteSpace=wrap;html=1;fontSize=17;" parent="rqm2Wf6PRogvZQ6xTr7Q-25" vertex="1">
          <mxGeometry x="520" width="40" height="60" as="geometry" />
        </mxCell>
        <mxCell id="rqm2Wf6PRogvZQ6xTr7Q-21" value="." style="rounded=0;whiteSpace=wrap;html=1;fontSize=17;" parent="rqm2Wf6PRogvZQ6xTr7Q-25" vertex="1">
          <mxGeometry x="560" width="40" height="60" as="geometry" />
        </mxCell>
        <mxCell id="rqm2Wf6PRogvZQ6xTr7Q-22" value="." style="rounded=0;whiteSpace=wrap;html=1;fontSize=17;" parent="rqm2Wf6PRogvZQ6xTr7Q-25" vertex="1">
          <mxGeometry x="600" width="40" height="60" as="geometry" />
        </mxCell>
        <mxCell id="rqm2Wf6PRogvZQ6xTr7Q-23" value="." style="rounded=0;whiteSpace=wrap;html=1;fontSize=17;" parent="rqm2Wf6PRogvZQ6xTr7Q-25" vertex="1">
          <mxGeometry x="640" width="40" height="60" as="geometry" />
        </mxCell>
        <mxCell id="rqm2Wf6PRogvZQ6xTr7Q-24" value="\0" style="rounded=0;whiteSpace=wrap;html=1;fontSize=17;" parent="rqm2Wf6PRogvZQ6xTr7Q-25" vertex="1">
          <mxGeometry x="680" width="40" height="60" as="geometry" />
        </mxCell>
        <mxCell id="rqm2Wf6PRogvZQ6xTr7Q-26" value="SDS" style="rounded=0;whiteSpace=wrap;html=1;fontStyle=1;fontSize=15;" parent="rqm2Wf6PRogvZQ6xTr7Q-27" vertex="1">
          <mxGeometry width="720" height="40" as="geometry" />
        </mxCell>
        <mxCell id="rqm2Wf6PRogvZQ6xTr7Q-28" style="edgeStyle=orthogonalEdgeStyle;rounded=0;orthogonalLoop=1;jettySize=auto;html=1;exitX=1;exitY=0.5;exitDx=0;exitDy=0;entryX=0;entryY=0.5;entryDx=0;entryDy=0;" parent="1" source="rqm2Wf6PRogvZQ6xTr7Q-7" target="rqm2Wf6PRogvZQ6xTr7Q-26" edge="1">
          <mxGeometry relative="1" as="geometry" />
        </mxCell>
        <mxCell id="rqm2Wf6PRogvZQ6xTr7Q-29" value="典型的SDS与其对应的RedisObject结构" style="text;html=1;align=center;verticalAlign=middle;resizable=0;points=[];autosize=1;strokeColor=none;fillColor=none;fontStyle=1;fontSize=16;" parent="1" vertex="1">
          <mxGeometry x="430" y="90" width="300" height="30" as="geometry" />
        </mxCell>
        <mxCell id="rqm2Wf6PRogvZQ6xTr7Q-37" value="" style="group" parent="1" vertex="1" connectable="0">
          <mxGeometry x="470" y="680" width="720" height="100" as="geometry" />
        </mxCell>
        <mxCell id="rqm2Wf6PRogvZQ6xTr7Q-38" value="" style="group" parent="rqm2Wf6PRogvZQ6xTr7Q-37" vertex="1" connectable="0">
          <mxGeometry y="40" width="720" height="60" as="geometry" />
        </mxCell>
        <mxCell id="rqm2Wf6PRogvZQ6xTr7Q-39" value="len:44" style="rounded=0;whiteSpace=wrap;html=1;fontSize=17;" parent="rqm2Wf6PRogvZQ6xTr7Q-38" vertex="1">
          <mxGeometry width="60" height="60" as="geometry" />
        </mxCell>
        <mxCell id="rqm2Wf6PRogvZQ6xTr7Q-40" value="alloc:44" style="rounded=0;whiteSpace=wrap;html=1;fontSize=17;" parent="rqm2Wf6PRogvZQ6xTr7Q-38" vertex="1">
          <mxGeometry x="61" width="69" height="60" as="geometry" />
        </mxCell>
        <mxCell id="rqm2Wf6PRogvZQ6xTr7Q-41" value="flags:1" style="rounded=0;whiteSpace=wrap;html=1;fontSize=17;" parent="rqm2Wf6PRogvZQ6xTr7Q-38" vertex="1">
          <mxGeometry x="130" width="70" height="60" as="geometry" />
        </mxCell>
        <mxCell id="rqm2Wf6PRogvZQ6xTr7Q-42" value="h" style="rounded=0;whiteSpace=wrap;html=1;fontSize=17;" parent="rqm2Wf6PRogvZQ6xTr7Q-38" vertex="1">
          <mxGeometry x="200" width="40" height="60" as="geometry" />
        </mxCell>
        <mxCell id="rqm2Wf6PRogvZQ6xTr7Q-43" value="i" style="rounded=0;whiteSpace=wrap;html=1;fontSize=17;" parent="rqm2Wf6PRogvZQ6xTr7Q-38" vertex="1">
          <mxGeometry x="240" width="40" height="60" as="geometry" />
        </mxCell>
        <mxCell id="rqm2Wf6PRogvZQ6xTr7Q-44" value="," style="rounded=0;whiteSpace=wrap;html=1;fontSize=17;" parent="rqm2Wf6PRogvZQ6xTr7Q-38" vertex="1">
          <mxGeometry x="280" width="40" height="60" as="geometry" />
        </mxCell>
        <mxCell id="rqm2Wf6PRogvZQ6xTr7Q-45" value="A" style="rounded=0;whiteSpace=wrap;html=1;fontSize=17;" parent="rqm2Wf6PRogvZQ6xTr7Q-38" vertex="1">
          <mxGeometry x="320" width="40" height="60" as="geometry" />
        </mxCell>
        <mxCell id="rqm2Wf6PRogvZQ6xTr7Q-46" value="m" style="rounded=0;whiteSpace=wrap;html=1;fontSize=17;" parent="rqm2Wf6PRogvZQ6xTr7Q-38" vertex="1">
          <mxGeometry x="360" width="40" height="60" as="geometry" />
        </mxCell>
        <mxCell id="rqm2Wf6PRogvZQ6xTr7Q-47" value="y" style="rounded=0;whiteSpace=wrap;html=1;fontSize=17;" parent="rqm2Wf6PRogvZQ6xTr7Q-38" vertex="1">
          <mxGeometry x="400" width="40" height="60" as="geometry" />
        </mxCell>
        <mxCell id="rqm2Wf6PRogvZQ6xTr7Q-48" value="，" style="rounded=0;whiteSpace=wrap;html=1;fontSize=17;" parent="rqm2Wf6PRogvZQ6xTr7Q-38" vertex="1">
          <mxGeometry x="440" width="40" height="60" as="geometry" />
        </mxCell>
        <mxCell id="rqm2Wf6PRogvZQ6xTr7Q-49" value="." style="rounded=0;whiteSpace=wrap;html=1;fontSize=17;" parent="rqm2Wf6PRogvZQ6xTr7Q-38" vertex="1">
          <mxGeometry x="480" width="40" height="60" as="geometry" />
        </mxCell>
        <mxCell id="rqm2Wf6PRogvZQ6xTr7Q-50" value="." style="rounded=0;whiteSpace=wrap;html=1;fontSize=17;" parent="rqm2Wf6PRogvZQ6xTr7Q-38" vertex="1">
          <mxGeometry x="520" width="40" height="60" as="geometry" />
        </mxCell>
        <mxCell id="rqm2Wf6PRogvZQ6xTr7Q-51" value="." style="rounded=0;whiteSpace=wrap;html=1;fontSize=17;" parent="rqm2Wf6PRogvZQ6xTr7Q-38" vertex="1">
          <mxGeometry x="560" width="40" height="60" as="geometry" />
        </mxCell>
        <mxCell id="rqm2Wf6PRogvZQ6xTr7Q-52" value="." style="rounded=0;whiteSpace=wrap;html=1;fontSize=17;" parent="rqm2Wf6PRogvZQ6xTr7Q-38" vertex="1">
          <mxGeometry x="600" width="40" height="60" as="geometry" />
        </mxCell>
        <mxCell id="rqm2Wf6PRogvZQ6xTr7Q-53" value="." style="rounded=0;whiteSpace=wrap;html=1;fontSize=17;" parent="rqm2Wf6PRogvZQ6xTr7Q-38" vertex="1">
          <mxGeometry x="640" width="40" height="60" as="geometry" />
        </mxCell>
        <mxCell id="rqm2Wf6PRogvZQ6xTr7Q-54" value="\0" style="rounded=0;whiteSpace=wrap;html=1;fontSize=17;" parent="rqm2Wf6PRogvZQ6xTr7Q-38" vertex="1">
          <mxGeometry x="680" width="40" height="60" as="geometry" />
        </mxCell>
        <mxCell id="rqm2Wf6PRogvZQ6xTr7Q-55" value="SDS" style="rounded=0;whiteSpace=wrap;html=1;fontStyle=1;fontSize=15;" parent="rqm2Wf6PRogvZQ6xTr7Q-37" vertex="1">
          <mxGeometry width="720" height="40" as="geometry" />
        </mxCell>
        <mxCell id="rqm2Wf6PRogvZQ6xTr7Q-57" value="紧凑的SDS与其对应的RedisObject结构" style="text;html=1;align=center;verticalAlign=middle;resizable=0;points=[];autosize=1;strokeColor=none;fillColor=none;fontStyle=1;fontSize=16;" parent="1" vertex="1">
          <mxGeometry x="380" y="620" width="300" height="30" as="geometry" />
        </mxCell>
        <mxCell id="rqm2Wf6PRogvZQ6xTr7Q-31" value="RedisObject" style="rounded=0;whiteSpace=wrap;html=1;fontStyle=1;fontSize=15;" parent="1" vertex="1">
          <mxGeometry x="-80" y="680" width="550" height="40" as="geometry" />
        </mxCell>
        <mxCell id="rqm2Wf6PRogvZQ6xTr7Q-32" value="&lt;span style=&quot;font-weight: normal;&quot;&gt;type:&amp;nbsp;&lt;/span&gt;&lt;div&gt;&lt;span style=&quot;font-weight: normal;&quot;&gt;OBJ_STRING&lt;/span&gt;&lt;/div&gt;" style="rounded=0;whiteSpace=wrap;html=1;fontStyle=1;fontSize=15;" parent="1" vertex="1">
          <mxGeometry x="-80" y="720" width="110" height="60" as="geometry" />
        </mxCell>
        <mxCell id="rqm2Wf6PRogvZQ6xTr7Q-33" value="&lt;span style=&quot;font-weight: normal;&quot;&gt;encoding: OBJ_ENCODING_EMBSTR&lt;/span&gt;" style="rounded=0;whiteSpace=wrap;html=1;fontStyle=1;fontSize=15;" parent="1" vertex="1">
          <mxGeometry x="30" y="720" width="210" height="60" as="geometry" />
        </mxCell>
        <mxCell id="rqm2Wf6PRogvZQ6xTr7Q-34" value="&lt;span style=&quot;font-weight: normal;&quot;&gt;lru&lt;/span&gt;" style="rounded=0;whiteSpace=wrap;html=1;fontStyle=1;fontSize=15;" parent="1" vertex="1">
          <mxGeometry x="240" y="720" width="50" height="60" as="geometry" />
        </mxCell>
        <mxCell id="rqm2Wf6PRogvZQ6xTr7Q-35" value="&lt;span style=&quot;font-weight: 400;&quot;&gt;refcount&lt;/span&gt;" style="rounded=0;whiteSpace=wrap;html=1;fontStyle=1;fontSize=15;" parent="1" vertex="1">
          <mxGeometry x="290" y="720" width="100" height="60" as="geometry" />
        </mxCell>
        <mxCell id="rqm2Wf6PRogvZQ6xTr7Q-36" value="&lt;span style=&quot;font-weight: 400;&quot;&gt;ptr&lt;/span&gt;" style="rounded=0;whiteSpace=wrap;html=1;fontStyle=1;fontSize=15;" parent="1" vertex="1">
          <mxGeometry x="390" y="720" width="80" height="60" as="geometry" />
        </mxCell>
        <mxCell id="rqm2Wf6PRogvZQ6xTr7Q-77" value="字符串为数字与其对应的RedisObject结构" style="text;html=1;align=center;verticalAlign=middle;resizable=0;points=[];autosize=1;strokeColor=none;fillColor=none;fontStyle=1;fontSize=16;" parent="1" vertex="1">
          <mxGeometry x="370" y="870" width="320" height="30" as="geometry" />
        </mxCell>
        <mxCell id="rqm2Wf6PRogvZQ6xTr7Q-78" value="RedisObject" style="rounded=0;whiteSpace=wrap;html=1;fontStyle=1;fontSize=15;" parent="1" vertex="1">
          <mxGeometry x="255" y="930" width="550" height="40" as="geometry" />
        </mxCell>
        <mxCell id="rqm2Wf6PRogvZQ6xTr7Q-79" value="&lt;span style=&quot;font-weight: normal;&quot;&gt;type:&amp;nbsp;&lt;/span&gt;&lt;div&gt;&lt;span style=&quot;font-weight: normal;&quot;&gt;OBJ_STRING&lt;/span&gt;&lt;/div&gt;" style="rounded=0;whiteSpace=wrap;html=1;fontStyle=1;fontSize=15;" parent="1" vertex="1">
          <mxGeometry x="255" y="970" width="110" height="60" as="geometry" />
        </mxCell>
        <mxCell id="rqm2Wf6PRogvZQ6xTr7Q-80" value="&lt;span style=&quot;font-weight: normal;&quot;&gt;encoding: OBJ_ENCODING_INT&lt;/span&gt;" style="rounded=0;whiteSpace=wrap;html=1;fontStyle=1;fontSize=15;" parent="1" vertex="1">
          <mxGeometry x="365" y="970" width="210" height="60" as="geometry" />
        </mxCell>
        <mxCell id="rqm2Wf6PRogvZQ6xTr7Q-81" value="&lt;span style=&quot;font-weight: normal;&quot;&gt;lru&lt;/span&gt;" style="rounded=0;whiteSpace=wrap;html=1;fontStyle=1;fontSize=15;" parent="1" vertex="1">
          <mxGeometry x="575" y="970" width="50" height="60" as="geometry" />
        </mxCell>
        <mxCell id="rqm2Wf6PRogvZQ6xTr7Q-82" value="&lt;span style=&quot;font-weight: 400;&quot;&gt;refcount&lt;/span&gt;" style="rounded=0;whiteSpace=wrap;html=1;fontStyle=1;fontSize=15;" parent="1" vertex="1">
          <mxGeometry x="625" y="970" width="100" height="60" as="geometry" />
        </mxCell>
        <mxCell id="rqm2Wf6PRogvZQ6xTr7Q-83" value="&lt;span style=&quot;font-weight: 400;&quot;&gt;ptr: 12345&lt;/span&gt;" style="rounded=0;whiteSpace=wrap;html=1;fontStyle=1;fontSize=15;" parent="1" vertex="1">
          <mxGeometry x="725" y="970" width="80" height="60" as="geometry" />
        </mxCell>
      </root>
    </mxGraphModel>
  </diagram>
</mxfile>
